<svg width="592" height="633" viewBox="0 0 592 633" fill="none" xmlns="http://www.w3.org/2000/svg">
<path d="M146.584 51.5493C105.277 58.1209 75.7046 73.1416 49.0663 100.719C25.3618 125.479 10.5758 152.47 3.18275 184.506C0.601066 195.654 0.601066 196.358 0.131668 332.366C-0.22038 484.334 -0.455078 478.701 7.64203 503.814C17.6167 534.911 33.4589 559.907 57.7502 583.142C80.9854 605.204 113.374 622.571 145.41 629.73C156.441 632.194 158.084 632.194 293.857 632.194H431.156L443.125 629.495C480.56 621.28 509.662 606.025 535.245 581.382C555.663 561.55 567.985 543.712 578.312 518.365C581.48 510.62 585.587 498.181 587.348 490.788L590.633 477.293L590.986 339.525C591.455 187.557 591.69 194.481 584.062 170.424C578.077 151.531 568.572 133.577 555.898 117.382L552.378 112.923L547.332 119.729C544.515 123.367 537.357 132.52 531.255 140.031C525.27 147.541 513.535 162.327 505.086 172.889C496.754 183.45 485.723 197.415 480.56 203.869C475.514 210.323 470.82 216.19 470.233 216.895C469.646 217.716 471.172 222.293 474.106 228.395C476.687 234.028 480.208 243.768 481.968 249.987L485.136 261.37V338.821C485.136 409.465 484.902 417.093 483.024 426.246C472.932 473.068 439.253 509.212 394.777 520.947C383.629 523.88 381.282 524.115 349.363 524.585L315.684 525.054L304.536 535.85C298.434 541.835 289.867 549.228 285.408 552.162C229.667 589.244 159.257 583.377 113.726 537.728C98.4704 522.472 88.7304 506.513 82.0415 485.977C77.1128 470.604 75.7046 459.221 76.5261 438.685C77.4649 411.577 82.9803 394.561 97.7663 372.382L105.277 361L105.746 307.136C106.215 256.676 106.45 252.569 108.68 244.354C115.017 221.706 125.343 204.573 141.655 189.083C157.145 174.414 172.4 165.848 194.11 159.745C203.381 157.046 204.789 157.046 273.556 156.577L343.613 156.225L372.129 120.199C387.854 100.367 405.456 78.1876 411.206 70.7946C417.074 63.519 422.941 55.8913 424.467 54.131L427.166 50.7279L288.342 50.8452C211.947 50.9626 148.227 51.3146 146.584 51.5493Z" fill="#1FB6A1"/>
<path d="M180.615 527.635C202.794 534.324 228.376 531.508 247.504 520.125C259.708 512.967 264.989 507.451 291.862 474.007C348.893 403.245 352.649 398.082 356.873 385.291C359.22 378.133 359.455 374.26 360.159 335.301C360.981 288.713 361.215 287.421 369.077 272.518C371.307 268.294 379.053 257.498 386.328 248.462C393.604 239.426 426.227 198.705 458.733 158.102C491.356 117.382 525.739 74.7842 535.01 63.2839C561.296 31.0138 561.766 30.3091 560.358 20.9216C558.128 6.60501 541.933 -3.48767 529.142 1.55835C527.616 2.26249 525.27 3.67121 523.979 4.72729C522.802 5.78761 494.757 40.5216 461.666 81.8259C428.574 123.133 395.129 164.792 387.267 174.532C379.405 184.155 366.848 199.761 359.338 209.149C324.251 252.803 312.75 260.666 265.107 273.574C239.407 280.498 227.554 286.014 218.166 295.167C214.528 298.57 202.676 312.769 191.763 326.616C180.849 340.463 165.359 359.943 157.379 369.918C132.266 401.367 126.282 411.695 122.292 430.353C120.18 440.328 120.884 460.042 123.818 469.665C132.149 497.476 153.859 519.656 180.615 527.635ZM204.965 442.609L293.315 332.953L296.741 335.715L208.392 445.37L204.965 442.609Z" fill="black"/>
</svg>
