<svg width="3688" height="967" viewBox="0 0 3688 967" fill="none" xmlns="http://www.w3.org/2000/svg">
<path d="M146.584 194.549C105.277 201.121 75.7046 216.142 49.0663 243.719C25.3618 268.479 10.5758 295.47 3.18275 327.506C0.601066 338.654 0.601066 339.358 0.131668 475.366C-0.22038 627.334 -0.455078 621.701 7.64203 646.814C17.6167 677.911 33.4589 702.907 57.7502 726.142C80.9854 748.204 113.374 765.571 145.41 772.73C156.441 775.194 158.084 775.194 293.857 775.194H431.156L443.125 772.495C480.56 764.28 509.662 749.025 535.245 724.382C555.663 704.55 567.985 686.712 578.312 661.365C581.48 653.62 585.587 641.181 587.348 633.788L590.633 620.293L590.986 482.525C591.455 330.557 591.69 337.481 584.062 313.424C578.077 294.531 568.572 276.577 555.898 260.382L552.378 255.923L547.332 262.729C544.515 266.367 537.357 275.52 531.255 283.031C525.27 290.541 513.535 305.327 505.086 315.889C496.754 326.45 485.723 340.415 480.56 346.869C475.514 353.323 470.82 359.19 470.233 359.895C469.646 360.716 471.172 365.293 474.106 371.395C476.687 377.028 480.208 386.768 481.968 392.987L485.136 404.37V481.821C485.136 552.465 484.902 560.093 483.024 569.246C472.932 616.068 439.253 652.212 394.777 663.947C383.629 666.88 381.282 667.115 349.363 667.585L315.684 668.054L304.536 678.85C298.434 684.835 289.867 692.228 285.408 695.162C229.667 732.244 159.257 726.377 113.726 680.728C98.4704 665.472 88.7304 649.513 82.0415 628.977C77.1128 613.604 75.7046 602.221 76.5261 581.685C77.4649 554.577 82.9803 537.561 97.7663 515.382L105.277 504L105.746 450.136C106.215 399.676 106.45 395.569 108.68 387.354C115.017 364.706 125.343 347.573 141.655 332.083C157.145 317.414 172.4 308.848 194.11 302.745C203.381 300.046 204.789 300.046 273.556 299.577L343.613 299.225L372.129 263.199C387.854 243.367 405.456 221.188 411.206 213.795C417.074 206.519 422.941 198.891 424.467 197.131L427.166 193.728L288.342 193.845C211.947 193.963 148.227 194.315 146.584 194.549Z" fill="#008383"/>
<path d="M180.615 670.635C202.794 677.324 228.376 674.508 247.504 663.126C259.708 655.967 264.989 650.451 291.862 617.006C348.894 546.245 352.649 541.082 356.874 528.291C359.221 521.133 359.455 517.26 360.159 478.3C360.98 431.713 361.216 430.422 369.078 415.518C371.308 411.294 379.052 400.497 386.328 391.462C393.604 382.426 426.227 341.705 458.733 301.102C491.356 260.383 525.739 217.785 535.01 206.285C561.296 174.014 561.765 173.309 560.357 163.922C558.128 149.605 541.933 139.512 529.142 144.558C527.617 145.262 525.27 146.671 523.979 147.727C522.806 148.783 494.759 183.519 461.667 224.826C428.574 266.133 395.13 307.792 387.267 317.532C379.405 327.155 366.848 342.762 359.338 352.15C324.25 395.804 312.75 403.665 265.106 416.574C239.407 423.497 227.555 429.013 218.167 438.167C214.529 441.57 202.677 455.769 191.763 469.616C180.85 483.463 165.359 502.944 157.38 512.919C132.267 544.368 126.282 554.695 122.292 573.353C120.18 583.328 120.885 603.042 123.818 612.665C132.15 640.476 153.859 662.656 180.615 670.635ZM198 585.656L286.349 476L295.694 483.529L207.345 593.184L198 585.656Z" fill="#FFFFFF"/>
<path d="M830.568 775V193.182H1060.11C1104.05 193.182 1141.55 201.042 1172.61 216.761C1203.86 232.292 1227.63 254.356 1243.92 282.955C1260.4 311.364 1268.64 344.792 1268.64 383.239C1268.64 421.875 1260.3 455.114 1243.64 482.955C1226.97 510.606 1202.82 531.818 1171.19 546.591C1139.75 561.364 1101.69 568.75 1056.99 568.75H903.295V469.886H1037.1C1060.59 469.886 1080.09 466.667 1095.62 460.227C1111.16 453.788 1122.71 444.129 1130.28 431.25C1138.05 418.371 1141.93 402.367 1141.93 383.239C1141.93 363.92 1138.05 347.633 1130.28 334.375C1122.71 321.117 1111.06 311.08 1095.34 304.261C1079.81 297.254 1060.21 293.75 1036.53 293.75H953.58V775H830.568ZM1144.77 510.227L1289.38 775H1153.58L1012.1 510.227H1144.77ZM1355.57 775V193.182H1478.58V433.239H1728.3V193.182H1851.02V775H1728.3V534.659H1478.58V775H1355.57ZM1985.97 775V193.182H2309.83V226.136H2021.48V467.33H2292.5V500.284H2021.48V742.045H2316.65V775H1985.97ZM2457.06 193.182H2495.7L2719.84 723.864H2723.82L2947.97 193.182H2986.61V775H2952.51V277.557H2949.11L2738.59 775H2705.07L2494.56 277.557H2491.15V775H2457.06V193.182ZM3617.5 484.091C3617.5 544.129 3607.08 596.591 3586.25 641.477C3565.42 686.174 3536.44 720.928 3499.32 745.739C3462.39 770.549 3419.77 782.955 3371.48 782.955C3322.99 782.955 3280.19 770.549 3243.07 745.739C3206.14 720.739 3177.25 685.89 3156.42 641.193C3135.59 596.307 3125.17 543.939 3125.17 484.091C3125.17 424.053 3135.59 371.686 3156.42 326.989C3177.44 282.292 3206.42 247.538 3243.35 222.727C3280.28 197.727 3322.99 185.227 3371.48 185.227C3419.77 185.227 3462.39 197.633 3499.32 222.443C3536.44 247.254 3565.42 282.102 3586.25 326.989C3607.08 371.686 3617.5 424.053 3617.5 484.091ZM3582.84 484.091C3582.84 430.114 3573.75 383.333 3555.57 343.75C3537.58 304.167 3512.67 273.58 3480.85 251.989C3449.03 230.208 3412.58 219.318 3371.48 219.318C3330.38 219.318 3293.92 230.114 3262.1 251.705C3230.28 273.106 3205.28 303.693 3187.1 343.466C3169.11 383.049 3160.11 429.924 3160.11 484.091C3160.11 537.689 3169.02 584.375 3186.82 624.148C3204.81 663.731 3229.72 694.413 3261.53 716.193C3293.35 737.973 3330 748.864 3371.48 748.864C3412.58 748.864 3449.03 738.068 3480.85 716.477C3512.67 694.697 3537.58 664.015 3555.57 624.432C3573.75 584.848 3582.84 538.068 3582.84 484.091Z" fill="#FFFFFF"/>
</svg>
