<?xml version="1.0" encoding="UTF-8" standalone="no"?>
<!DOCTYPE svg PUBLIC "-//W3C//DTD SVG 1.1//EN" "http://www.w3.org/Graphics/SVG/1.1/DTD/svg11.dtd">
<svg width="100%" height="100%" viewBox="0 0 575 575" version="1.1" xmlns="http://www.w3.org/2000/svg" xmlns:xlink="http://www.w3.org/1999/xlink" xml:space="preserve" xmlns:serif="http://www.serif.com/" style="fill-rule:evenodd;clip-rule:evenodd;stroke-linejoin:round;stroke-miterlimit:2;">
    <g transform="matrix(0.1,0,0,-0.1,-226.078,795.717)">
        <path d="M5048,7760C4943,7756 4928,7753 4908,7732C4890,7715 4885,7698 4885,7661C4885,7598 4916,7560 4967,7560L5000,7560L5000,5332L4939,5244C4853,5118 4745,4932 4689,4815C4623,4676 4584,4559 4554,4411C4529,4287 4529,4283 4533,3875C4537,3418 4537,3416 4610,3264C4666,3147 4757,3052 4863,3000C4945,2960 5054,2930 5120,2931C5139,2931 5191,2937 5235,2945C5465,2986 5643,3159 5712,3407C5732,3480 5734,3513 5738,3885C5742,4347 5738,4387 5674,4580C5598,4805 5523,4950 5333,5236L5260,5347L5262,6451L5265,7555L5297,7558C5338,7562 5380,7610 5380,7651C5380,7691 5357,7733 5328,7747C5299,7762 5197,7766 5048,7760ZM5162,5053C5179,5038 5180,5001 5180,4279C5180,3540 5180,3520 5161,3510C5131,3494 5102,3498 5090,3519C5083,3532 5080,3789 5080,4282C5080,4939 5082,5028 5096,5048C5114,5074 5137,5076 5162,5053Z" style="fill-rule:nonzero;"/>
        <path d="M6355,7340C6287,7329 6259,7317 6216,7279C6169,7238 6150,7201 6150,7151C6150,7105 6166,7089 6305,7001C6557,6841 6828,6572 7001,6312C7138,6105 7228,5913 7294,5683C7357,5464 7365,5405 7365,5110C7365,4873 7363,4833 7342,4732C7312,4584 7259,4402 7222,4320C7177,4220 7175,4204 7204,4175C7236,4143 7265,4144 7343,4175C7428,4210 7511,4262 7602,4338C7724,4440 7738,4469 7780,4714C7912,5490 7676,6260 7117,6872C6909,7099 6620,7314 6495,7335C6420,7347 6405,7348 6355,7340Z" style="fill-rule:nonzero;"/>
        <path d="M3725,7323C3677,7303 3600,7256 3505,7187C3053,6858 2702,6356 2552,5820C2509,5668 2504,5642 2479,5470C2450,5273 2448,4934 2474,4772C2496,4631 2528,4494 2545,4461C2561,4429 2692,4309 2760,4263C2830,4216 2941,4164 2986,4157C3019,4151 3033,4154 3054,4171C3086,4196 3087,4220 3055,4287C2993,4421 2932,4657 2909,4854C2894,4980 2903,5321 2924,5455C2993,5889 3205,6306 3528,6641C3670,6789 3788,6887 3950,6993C4112,7100 4108,7097 4115,7134C4127,7194 4067,7279 3985,7316C3923,7345 3789,7349 3725,7323Z" style="fill-rule:nonzero;"/>
        <path d="M2755,3929C2738,3903 2873,3752 2975,3683C3148,3567 3276,3527 3700,3460C3887,3431 4046,3393 4158,3350C4245,3317 4300,3326 4300,3374C4300,3386 4288,3431 4274,3474C4256,3531 4247,3587 4243,3667C4234,3836 4291,3820 3691,3820C3085,3820 3033,3826 2837,3914C2773,3943 2764,3945 2755,3929Z" style="fill-rule:nonzero;"/>
        <path d="M7424,3909C7390,3893 7318,3868 7264,3853L7165,3826L6614,3821C6104,3815 6061,3814 6042,3797C6026,3782 6022,3761 6017,3657C6013,3568 6005,3513 5987,3455C5946,3323 5974,3308 6147,3363C6282,3407 6432,3440 6670,3480C6887,3516 6955,3531 7058,3566C7168,3603 7265,3654 7342,3716C7423,3781 7525,3903 7516,3925C7509,3945 7495,3943 7424,3909Z" style="fill-rule:nonzero;"/>
        <path d="M3210,3263C3210,3232 3437,3021 3594,2906C3792,2761 4005,2645 4220,2565C4530,2449 4884,2392 5220,2403C5415,2410 5543,2426 5705,2465C6188,2578 6572,2787 6958,3146C7101,3280 7096,3295 6924,3256C6864,3243 6732,3215 6630,3195C6238,3119 6022,3041 5796,2896C5576,2755 5466,2705 5310,2676C5134,2642 4903,2665 4744,2731C4704,2748 4621,2794 4558,2834C4366,2957 4292,2999 4198,3041C4068,3098 3872,3154 3679,3190C3587,3206 3456,3232 3389,3246C3200,3286 3210,3285 3210,3263Z" style="fill-rule:nonzero;"/>
    </g>
</svg>
